HIERARCHY
ROOT Hips
{
	OFFSET 0.00000 0.00000 0.00000
	CHANNELS 6 Xposition Yposition Zposition Zrotation Yrotation Xrotation 
	JOINT LHipJoint
	{
		OFFSET 0 0 0
		CHANNELS 3 Zrotation Yrotation Xrotation
		JOINT LeftUpLeg
		{
			OFFSET 1.41496 -1.84582 0.78394
			CHANNELS 3 Zrotation Yrotation Xrotation
			JOINT LeftLeg
			{
				OFFSET 2.58040 -7.08960 0.00000
				CHANNELS 3 Zrotation Yrotation Xrotation
				JOINT LeftFoot
				{
					OFFSET 2.64719 -7.27309 0.00000
					CHANNELS 3 Zrotation Yrotation Xrotation
					JOINT LeftToeBase
					{
						OFFSET 0.20718 -0.56921 2.20259
						CHANNELS 3 Zrotation Yrotation Xrotation
						End Site
						{
							OFFSET 0.00000 -0.00000 1.14243
						}
					}
				}
			}
		}
	}
	JOINT RHipJoint
	{
		OFFSET 0 0 0
		CHANNELS 3 Zrotation Yrotation Xrotation
		JOINT RightUpLeg
		{
			OFFSET -1.40551 -1.84582 0.78394
			CHANNELS 3 Zrotation Yrotation Xrotation
			JOINT RightLeg
			{
				OFFSET -2.56572 -7.04926 0.00000
				CHANNELS 3 Zrotation Yrotation Xrotation
				JOINT RightFoot
				{
					OFFSET -2.57974 -7.08778 0.00000
					CHANNELS 3 Zrotation Yrotation Xrotation
					JOINT RightToeBase
					{
						OFFSET -0.26704 -0.73369 2.20815
						CHANNELS 3 Zrotation Yrotation Xrotation
						End Site
						{
							OFFSET -0.00000 -0.00000 1.16246
						}
					}
				}
			}
		}
	}
	JOINT LowerBack
	{
		OFFSET 0 0 0
		CHANNELS 3 Zrotation Yrotation Xrotation
		JOINT Spine
		{
			OFFSET -0.04690 2.05196 -0.07017
			CHANNELS 3 Zrotation Yrotation Xrotation
			JOINT Spine1
			{
				OFFSET 0.04085 2.05260 0.00800
				CHANNELS 3 Zrotation Yrotation Xrotation
				JOINT Neck
				{
					OFFSET 0 0 0
					CHANNELS 3 Zrotation Yrotation Xrotation
					JOINT Neck1
					{
						OFFSET -0.03582 1.80995 0.19301
						CHANNELS 3 Zrotation Yrotation Xrotation
						JOINT Head
						{
							OFFSET 0.00952 1.80195 -0.36389
							CHANNELS 3 Zrotation Yrotation Xrotation
							End Site
							{
								OFFSET 0.00392 1.85062 -0.14494
							}
						}
					}
				}
				JOINT LeftShoulder
				{
					OFFSET 0 0 0
					CHANNELS 3 Zrotation Yrotation Xrotation
					JOINT LeftArm
					{
						OFFSET 3.55224 1.39726 -0.13667
						CHANNELS 3 Zrotation Yrotation Xrotation
						JOINT LeftForeArm
						{
							OFFSET 5.14507 -0.00000 -0.00000
							CHANNELS 3 Zrotation Yrotation Xrotation
							JOINT LeftHand
							{
								OFFSET 3.50646 -0.00000 0.00000
								CHANNELS 3 Zrotation Yrotation Xrotation
								JOINT LeftFingerBase
								{
									OFFSET 0 0 0
									CHANNELS 3 Zrotation Yrotation Xrotation
									JOINT LeftHandIndex1
									{
										OFFSET 0.62997 -0.00000 0.00000
										CHANNELS 3 Zrotation Yrotation Xrotation
										End Site
										{
											OFFSET 0.50790 -0.00000 0.00000
										}
									}
								}
								JOINT LThumb
								{
									OFFSET 0 0 0
									CHANNELS 3 Zrotation Yrotation Xrotation
									End Site
									{
										OFFSET 0.51565 -0.00000 0.51565
									}
								}
							}
						}
					}
				}
				JOINT RightShoulder
				{
					OFFSET 0 0 0
					CHANNELS 3 Zrotation Yrotation Xrotation
					JOINT RightArm
					{
						OFFSET -3.06467 1.61290 -0.28813
						CHANNELS 3 Zrotation Yrotation Xrotation
						JOINT RightForeArm
						{
							OFFSET -5.23200 -0.00000 -0.00000
							CHANNELS 3 Zrotation Yrotation Xrotation
							JOINT RightHand
							{
								OFFSET -3.65641 -0.00000 0.00000
								CHANNELS 3 Zrotation Yrotation Xrotation
								JOINT RightFingerBase
								{
									OFFSET 0 0 0
									CHANNELS 3 Zrotation Yrotation Xrotation
									JOINT RightHandIndex1
									{
										OFFSET -0.65681 -0.00000 0.00000
										CHANNELS 3 Zrotation Yrotation Xrotation
										End Site
										{
											OFFSET -0.52953 -0.00000 0.00000
										}
									}
								}
								JOINT RThumb
								{
									OFFSET 0 0 0
									CHANNELS 3 Zrotation Yrotation Xrotation
									End Site
									{
										OFFSET -0.53762 -0.00000 0.53762
									}
								}
							}
						}
					}
				}
			}
		}
	}
}
MOTION
Frames: 11
Frame Time: .0083333
0.7235 17.1586 32.7592 0 0 0 0 0 0 -21 0 0 0 0 0 0 0 0 0 0 0 0 0 0 21 0 0 0 0 0 0 0 0 0 0 0 0 0 0 0 0 0 0 0 0 0 0 -16 0 0 21 0 0 11 0 0 0 -8 0 0 0 0 0 0 0 0 0 0 0 0 0 0 0 0 0 0 0 0 8 0 0 0 0 0 0 0 0 0 0 0 0 0 0 0 0 0
0.7235 17.1586 32.7592 177.9620 -6.2983 -174.9490 0.0000 0.0000 0.0000 -25.3115 -8.9907 -8.8194 2.8976 10.5274 30.7020 1.4060 -7.7043 -21.2067 0.2090 2.9431 8.1204 0.0000 0.0000 0.0000 12.5338 7.2105 -30.7045 -3.5142 -11.4842 33.9308 -0.0626 -3.4754 -7.2572 -0.4388 -4.2506 11.7828 -3.0900 -0.5400 4.0572 1.7398 -0.8766 -2.7170 3.6185 -0.3120 -5.0237 -2.0198 -0.1782 -19.4013 -1.1880 -0.1653 26.6528 -0.2052 -0.7997 11.9871 0.0000 -0.0000 0.0000 -89.3819 5.5027 20.2838 17.3992 -27.3811 -4.2693 -0.0000 -0.0000 15.2645 8.7582 9.1928 1.4099 -7.1250 0.0000 -0.0000 -15.6456 38.8138 2.4554 0.0000 -0.0000 0.0000 86.1498 -4.5071 12.6502 -16.4353 26.1073 -3.8355 0.0000 0.0000 2.1575 -20.5095 -11.7640 4.3613 7.1250 -0.0000 -0.0000 6.0178 -42.4374 0.3820
0.7209 17.1582 32.7595 177.9500 -6.2751 -174.9480 0.0000 0.0000 0.0000 -25.3337 -8.9518 -8.8311 2.8966 10.5258 30.6967 1.4041 -7.7149 -21.1929 0.2028 2.9000 8.0006 0.0000 0.0000 0.0000 12.5142 7.2206 -30.7128 -3.5168 -11.4880 33.9439 -0.0625 -3.4754 -7.2525 -0.4317 -4.2164 11.6864 -3.1056 -0.5345 4.0465 1.7449 -0.8700 -2.7208 3.6320 -0.3081 -5.0219 -2.0078 -0.1348 -19.3348 -1.1659 -0.1110 26.5822 -0.1891 -0.7685 11.9458 0.0000 -0.0000 0.0000 -89.3361 5.5197 20.3330 17.4050 -27.3886 -4.2720 -0.0000 -0.0000 15.2163 8.7409 9.2203 1.4112 -7.1250 0.0000 -0.0000 -15.6669 38.8392 2.4488 0.0000 -0.0000 0.0000 86.1451 -4.5156 12.6691 -16.4416 26.1158 -3.8383 0.0000 0.0000 2.1533 -20.5005 -11.8062 4.3746 7.1250 -0.0000 -0.0000 6.0331 -42.4809 0.3765
0.7179 17.1577 32.7597 177.9320 -6.2652 -174.9620 0.0000 0.0000 0.0000 -25.3694 -8.9348 -8.8142 2.8955 10.5239 30.6905 1.4039 -7.7032 -21.1914 0.2030 2.9012 8.0039 0.0000 0.0000 0.0000 12.4864 7.2058 -30.7014 -3.5176 -11.4892 33.9481 -0.0624 -3.4607 -7.2354 -0.4313 -4.2147 11.6814 -3.1143 -0.5352 4.0526 1.7433 -0.8715 -2.7187 3.6355 -0.3086 -5.0230 -2.0278 -0.1786 -19.4160 -1.1831 -0.1621 26.6437 -0.2014 -0.7976 11.9865 -0.0000 -0.0000 0.0000 -89.2927 5.5090 20.3343 17.3870 -27.3651 -4.2637 -0.0000 -0.0000 15.2235 8.8629 9.1091 1.4141 -7.1250 0.0000 -0.0000 -15.5380 38.7402 2.4665 -0.0000 -0.0000 0.0000 86.1451 -4.4940 12.6693 -16.4278 26.0973 -3.8322 0.0000 0.0000 2.1677 -20.4853 -11.7535 4.3519 7.1250 -0.0000 -0.0000 6.0377 -42.4239 0.3853
0.7155 17.1574 32.7596 177.9490 -6.2462 -174.9840 0.0000 0.0000 0.0000 -25.3658 -8.9202 -8.7905 2.8941 10.5217 30.6831 1.4034 -7.6615 -21.1871 0.1908 2.8128 7.7579 0.0000 0.0000 0.0000 12.4990 7.2133 -30.6809 -3.5184 -11.4904 33.9521 -0.0626 -3.4519 -7.2309 -0.4291 -4.2038 11.6507 -3.1078 -0.5294 4.0433 1.7565 -0.8625 -2.7098 3.6445 -0.3045 -5.0091 -2.0141 -0.1337 -19.3397 -1.1608 -0.1068 26.5694 -0.1853 -0.7658 11.9418 0.0000 -0.0000 0.0000 -89.2538 5.5363 20.3659 17.3966 -27.3776 -4.2681 -0.0000 -0.0000 15.2133 8.9198 9.0089 1.4078 -7.1250 0.0000 -0.0000 -15.4666 38.6469 2.4911 0.0000 -0.0000 0.0000 86.1401 -4.4907 12.6800 -16.4289 26.0988 -3.8327 0.0000 0.0000 2.1687 -20.4763 -11.7033 4.3316 7.1250 -0.0000 -0.0000 6.0370 -42.3700 0.3933
0.7132 17.1573 32.7585 177.9290 -6.2529 -175.0040 0.0000 0.0000 0.0000 -25.3942 -8.8877 -8.7642 2.8918 10.5178 30.6705 1.4043 -7.7411 -21.1941 0.2084 2.9390 8.1091 0.0000 0.0000 0.0000 12.4702 7.2060 -30.6538 -3.5194 -11.4918 33.9569 -0.0630 -3.4543 -7.2479 -0.4285 -4.2011 11.6432 -3.1401 -0.5371 4.0683 1.7637 -0.8756 -2.7265 3.6721 -0.3090 -5.0393 -2.0086 -0.1330 -19.3239 -1.1820 -0.1045 26.5773 -0.1939 -0.7681 11.9417 0.0000 0.0000 0.0000 -89.2274 5.5591 20.3462 17.3711 -27.3444 -4.2564 -0.0000 -0.0000 15.2588 8.8102 9.1260 1.4082 -7.1250 0.0000 -0.0000 -15.5862 38.7527 2.4697 0.0000 0.0000 0.0000 86.1206 -4.5191 12.7175 -16.4290 26.0989 -3.8328 0.0000 0.0000 2.1703 -20.4245 -11.6828 4.3122 7.1250 -0.0000 -0.0000 6.0797 -42.3432 0.4002
0.7108 17.1572 32.7580 177.9240 -6.2502 -175.0200 0.0000 0.0000 0.0000 -25.4101 -8.8646 -8.7427 2.8898 10.5144 30.6592 1.4039 -7.7651 -21.1918 0.2122 2.9660 8.1842 0.0000 0.0000 0.0000 12.4580 7.2018 -30.6329 -3.5195 -11.4920 33.9577 -0.0631 -3.4537 -7.2500 -0.4268 -4.1928 11.6196 -3.1558 -0.5393 4.0848 1.7727 -0.8799 -2.7380 3.6913 -0.3100 -5.0602 -2.0052 -0.1246 -19.3016 -1.1878 -0.0934 26.5711 -0.1949 -0.7639 11.9347 -0.0000 0.0000 0.0000 -89.1937 5.5883 20.3595 17.3614 -27.3318 -4.2520 -0.0000 -0.0000 15.2688 8.8131 9.1254 1.4086 -7.1250 0.0000 -0.0000 -15.5836 38.7523 2.4694 -0.0000 0.0000 0.0000 86.1080 -4.5386 12.7461 -16.4307 26.1011 -3.8335 0.0000 0.0000 2.1617 -20.4040 -11.6714 4.3034 7.1250 -0.0000 -0.0000 6.0960 -42.3292 0.4034
0.7085 17.1572 32.7573 177.9200 -6.2517 -175.0380 0.0000 0.0000 0.0000 -25.4229 -8.8407 -8.7185 2.8869 10.5097 30.6436 1.4032 -7.7942 -21.1865 0.2167 2.9970 8.2704 0.0000 0.0000 0.0000 12.4479 7.1967 -30.6118 -3.5202 -11.4929 33.9609 -0.0633 -3.4544 -7.2552 -0.4250 -4.1839 11.5946 -3.1718 -0.5428 4.1087 1.7830 -0.8865 -2.7547 3.7124 -0.3117 -5.0905 -2.0017 -0.1177 -19.2809 -1.1961 -0.0847 26.5735 -0.1973 -0.7615 11.9315 -0.0000 -0.0000 0.0000 -89.1620 5.6245 20.3726 17.3506 -27.3177 -4.2470 -0.0000 -0.0000 15.2835 8.8127 9.1280 1.4089 -7.1250 0.0000 -0.0000 -15.5845 38.7548 2.4686 -0.0000 -0.0000 0.0000 86.0936 -4.5663 12.7802 -16.4341 26.1058 -3.8350 0.0000 0.0000 2.1467 -20.3904 -11.6695 4.2996 7.1250 -0.0000 -0.0000 6.1079 -42.3258 0.4047
0.7063 17.1572 32.7566 177.9180 -6.2571 -175.0530 0.0000 0.0000 0.0000 -25.4324 -8.8171 -8.6971 2.8845 10.5057 30.6303 1.4022 -7.8285 -21.1794 0.2211 3.0270 8.3540 0.0000 0.0000 0.0000 12.4395 7.1914 -30.5905 -3.5203 -11.4932 33.9619 -0.0634 -3.4589 -7.2615 -0.4230 -4.1742 11.5672 -3.1890 -0.5477 4.1341 1.7943 -0.8951 -2.7743 3.7354 -0.3144 -5.1245 -1.9972 -0.1098 -19.2570 -1.2052 -0.0752 26.5772 -0.2000 -0.7590 11.9281 0.0000 0.0000 0.0000 -89.1314 5.6652 20.3898 17.3405 -27.3045 -4.2424 -0.0000 -0.0000 15.2958 8.8107 9.1383 1.4101 -7.1250 0.0000 -0.0000 -15.5887 38.7647 2.4654 0.0000 0.0000 0.0000 86.0776 -4.5986 12.8228 -16.4432 26.1179 -3.8390 0.0000 0.0000 2.1288 -20.3768 -11.7105 4.3113 7.1250 -0.0000 -0.0000 6.1269 -42.3675 0.3996
0.7041 17.1573 32.7559 177.9170 -6.2660 -175.0670 0.0000 0.0000 0.0000 -25.4393 -8.7938 -8.6782 2.8821 10.5017 30.6172 1.4008 -7.8649 -21.1695 0.2250 3.0535 8.4276 0.0000 0.0000 0.0000 12.4322 7.1854 -30.5706 -3.5204 -11.4933 33.9622 -0.0633 -3.4657 -7.2676 -0.4211 -4.1649 11.5410 -3.2047 -0.5537 4.1603 1.8050 -0.9051 -2.7956 3.7573 -0.3177 -5.1607 -1.9914 -0.1044 -19.2399 -1.2157 -0.0695 26.5887 -0.2043 -0.7586 11.9292 -0.0000 0.0000 0.0000 -89.1000 5.7052 20.4101 17.3291 -27.2896 -4.2371 -0.0000 -0.0000 15.3072 8.8128 9.1461 1.4117 -7.1250 0.0000 -0.0000 -15.5888 38.7724 2.4623 -0.0000 0.0000 0.0000 86.0625 -4.6319 12.8691 -16.4551 26.1338 -3.8442 0.0000 0.0000 2.1059 -20.3707 -11.7716 4.3320 7.1250 -0.0000 -0.0000 6.1430 -42.4312 0.3910
0.7020 17.1574 32.7552 177.9180 -6.2796 -175.0800 0.0000 0.0000 0.0000 -25.4434 -8.7714 -8.6613 2.8798 10.4979 30.6046 1.3990 -7.9031 -21.1559 0.2280 3.0732 8.4826 0.0000 0.0000 0.0000 12.4260 7.1787 -30.5510 -3.5204 -11.4932 33.9620 -0.0633 -3.4754 -7.2752 -0.4195 -4.1573 11.5196 -3.2195 -0.5612 4.1833 1.8154 -0.9169 -2.8150 3.7784 -0.3221 -5.1928 -1.9837 -0.0996 -19.2278 -1.2262 -0.0652 26.6030 -0.2091 -0.7585 11.9323 -0.0000 -0.0000 0.0000 -89.0680 5.7410 20.4350 17.3174 -27.2743 -4.2317 -0.0000 -0.0000 15.3138 8.8254 9.1397 1.4128 -7.1250 0.0000 -0.0000 -15.5767 38.7672 2.4623 -0.0000 -0.0000 0.0000 86.0493 -4.6612 12.9165 -16.4699 26.1536 -3.8507 0.0000 0.0000 2.0814 -20.3695 -11.8526 4.3610 7.1250 -0.0000 -0.0000 6.1582 -42.5164 0.3789
